<mxfile host="app.diagrams.net" agent="Mozilla/5.0 (Windows NT 10.0; Win64; x64) AppleWebKit/537.36 (KHTML, like Gecko) Chrome/131.0.0.0 Safari/537.36" version="24.8.6">
  <diagram name="Page-1" id="wQ29E580owKjpZfE2AsG">
    <mxGraphModel dx="2150" dy="928" grid="1" gridSize="10" guides="1" tooltips="1" connect="1" arrows="1" fold="1" page="1" pageScale="1" pageWidth="850" pageHeight="1100" math="0" shadow="0">
      <root>
        <mxCell id="0" />
        <mxCell id="1" parent="0" />
        <mxCell id="5J2Xf8zbZ3h8I-rfYEsj-1" value="CalendarApp" style="swimlane;fontStyle=1;align=center;verticalAlign=top;childLayout=stackLayout;horizontal=1;startSize=25.774999618530273;horizontalStack=0;resizeParent=1;resizeParentMax=0;resizeLast=0;collapsible=0;marginBottom=0;" vertex="1" parent="1">
          <mxGeometry x="169" y="20" width="285" height="215.77499961853027" as="geometry" />
        </mxCell>
        <mxCell id="5J2Xf8zbZ3h8I-rfYEsj-2" value="- name: String" style="text;strokeColor=none;fillColor=none;align=left;verticalAlign=top;spacingLeft=4;spacingRight=4;overflow=hidden;rotatable=0;points=[[0,0.5],[1,0.5]];portConstraint=eastwest;" vertex="1" parent="5J2Xf8zbZ3h8I-rfYEsj-1">
          <mxGeometry y="25.774999618530273" width="285" height="26" as="geometry" />
        </mxCell>
        <mxCell id="5J2Xf8zbZ3h8I-rfYEsj-3" value="- events: List" style="text;strokeColor=none;fillColor=none;align=left;verticalAlign=top;spacingLeft=4;spacingRight=4;overflow=hidden;rotatable=0;points=[[0,0.5],[1,0.5]];portConstraint=eastwest;" vertex="1" parent="5J2Xf8zbZ3h8I-rfYEsj-1">
          <mxGeometry y="51.77499961853027" width="285" height="26" as="geometry" />
        </mxCell>
        <mxCell id="5J2Xf8zbZ3h8I-rfYEsj-4" value="- syncServices: List" style="text;strokeColor=none;fillColor=none;align=left;verticalAlign=top;spacingLeft=4;spacingRight=4;overflow=hidden;rotatable=0;points=[[0,0.5],[1,0.5]];portConstraint=eastwest;" vertex="1" parent="5J2Xf8zbZ3h8I-rfYEsj-1">
          <mxGeometry y="77.77499961853027" width="285" height="26" as="geometry" />
        </mxCell>
        <mxCell id="5J2Xf8zbZ3h8I-rfYEsj-5" style="line;strokeWidth=1;fillColor=none;align=left;verticalAlign=middle;spacingTop=-1;spacingLeft=3;spacingRight=3;rotatable=0;labelPosition=right;points=[];portConstraint=eastwest;strokeColor=inherit;" vertex="1" parent="5J2Xf8zbZ3h8I-rfYEsj-1">
          <mxGeometry y="103.77499961853027" width="285" height="8" as="geometry" />
        </mxCell>
        <mxCell id="5J2Xf8zbZ3h8I-rfYEsj-6" value="+createEvent(event: Event) : : void" style="text;strokeColor=none;fillColor=none;align=left;verticalAlign=top;spacingLeft=4;spacingRight=4;overflow=hidden;rotatable=0;points=[[0,0.5],[1,0.5]];portConstraint=eastwest;" vertex="1" parent="5J2Xf8zbZ3h8I-rfYEsj-1">
          <mxGeometry y="111.77499961853027" width="285" height="26" as="geometry" />
        </mxCell>
        <mxCell id="5J2Xf8zbZ3h8I-rfYEsj-7" value="+deleteEvent(eventId: String) : : void" style="text;strokeColor=none;fillColor=none;align=left;verticalAlign=top;spacingLeft=4;spacingRight=4;overflow=hidden;rotatable=0;points=[[0,0.5],[1,0.5]];portConstraint=eastwest;" vertex="1" parent="5J2Xf8zbZ3h8I-rfYEsj-1">
          <mxGeometry y="137.77499961853027" width="285" height="26" as="geometry" />
        </mxCell>
        <mxCell id="5J2Xf8zbZ3h8I-rfYEsj-8" value="+viewEvents() : : List" style="text;strokeColor=none;fillColor=none;align=left;verticalAlign=top;spacingLeft=4;spacingRight=4;overflow=hidden;rotatable=0;points=[[0,0.5],[1,0.5]];portConstraint=eastwest;" vertex="1" parent="5J2Xf8zbZ3h8I-rfYEsj-1">
          <mxGeometry y="163.77499961853027" width="285" height="26" as="geometry" />
        </mxCell>
        <mxCell id="5J2Xf8zbZ3h8I-rfYEsj-9" value="+syncWithExternalCalendars() : : void" style="text;strokeColor=none;fillColor=none;align=left;verticalAlign=top;spacingLeft=4;spacingRight=4;overflow=hidden;rotatable=0;points=[[0,0.5],[1,0.5]];portConstraint=eastwest;" vertex="1" parent="5J2Xf8zbZ3h8I-rfYEsj-1">
          <mxGeometry y="189.77499961853027" width="285" height="26" as="geometry" />
        </mxCell>
        <mxCell id="5J2Xf8zbZ3h8I-rfYEsj-10" value="Event" style="swimlane;fontStyle=1;align=center;verticalAlign=top;childLayout=stackLayout;horizontal=1;startSize=25.1;horizontalStack=0;resizeParent=1;resizeParentMax=0;resizeLast=0;collapsible=0;marginBottom=0;" vertex="1" parent="1">
          <mxGeometry x="982" y="303" width="278" height="258.1" as="geometry" />
        </mxCell>
        <mxCell id="5J2Xf8zbZ3h8I-rfYEsj-11" value="- eventId: String" style="text;strokeColor=none;fillColor=none;align=left;verticalAlign=top;spacingLeft=4;spacingRight=4;overflow=hidden;rotatable=0;points=[[0,0.5],[1,0.5]];portConstraint=eastwest;" vertex="1" parent="5J2Xf8zbZ3h8I-rfYEsj-10">
          <mxGeometry y="25.1" width="278" height="25" as="geometry" />
        </mxCell>
        <mxCell id="5J2Xf8zbZ3h8I-rfYEsj-12" value="- title: String" style="text;strokeColor=none;fillColor=none;align=left;verticalAlign=top;spacingLeft=4;spacingRight=4;overflow=hidden;rotatable=0;points=[[0,0.5],[1,0.5]];portConstraint=eastwest;" vertex="1" parent="5J2Xf8zbZ3h8I-rfYEsj-10">
          <mxGeometry y="50.1" width="278" height="25" as="geometry" />
        </mxCell>
        <mxCell id="5J2Xf8zbZ3h8I-rfYEsj-13" value="- description: String" style="text;strokeColor=none;fillColor=none;align=left;verticalAlign=top;spacingLeft=4;spacingRight=4;overflow=hidden;rotatable=0;points=[[0,0.5],[1,0.5]];portConstraint=eastwest;" vertex="1" parent="5J2Xf8zbZ3h8I-rfYEsj-10">
          <mxGeometry y="75.1" width="278" height="25" as="geometry" />
        </mxCell>
        <mxCell id="5J2Xf8zbZ3h8I-rfYEsj-14" value="- startTime: LocalDateTime" style="text;strokeColor=none;fillColor=none;align=left;verticalAlign=top;spacingLeft=4;spacingRight=4;overflow=hidden;rotatable=0;points=[[0,0.5],[1,0.5]];portConstraint=eastwest;" vertex="1" parent="5J2Xf8zbZ3h8I-rfYEsj-10">
          <mxGeometry y="100.1" width="278" height="25" as="geometry" />
        </mxCell>
        <mxCell id="5J2Xf8zbZ3h8I-rfYEsj-15" value="- endTime: LocalDateTime" style="text;strokeColor=none;fillColor=none;align=left;verticalAlign=top;spacingLeft=4;spacingRight=4;overflow=hidden;rotatable=0;points=[[0,0.5],[1,0.5]];portConstraint=eastwest;" vertex="1" parent="5J2Xf8zbZ3h8I-rfYEsj-10">
          <mxGeometry y="125.1" width="278" height="25" as="geometry" />
        </mxCell>
        <mxCell id="5J2Xf8zbZ3h8I-rfYEsj-16" value="- location: String" style="text;strokeColor=none;fillColor=none;align=left;verticalAlign=top;spacingLeft=4;spacingRight=4;overflow=hidden;rotatable=0;points=[[0,0.5],[1,0.5]];portConstraint=eastwest;" vertex="1" parent="5J2Xf8zbZ3h8I-rfYEsj-10">
          <mxGeometry y="150.1" width="278" height="25" as="geometry" />
        </mxCell>
        <mxCell id="5J2Xf8zbZ3h8I-rfYEsj-17" value="- priority: int" style="text;strokeColor=none;fillColor=none;align=left;verticalAlign=top;spacingLeft=4;spacingRight=4;overflow=hidden;rotatable=0;points=[[0,0.5],[1,0.5]];portConstraint=eastwest;" vertex="1" parent="5J2Xf8zbZ3h8I-rfYEsj-10">
          <mxGeometry y="175.1" width="278" height="25" as="geometry" />
        </mxCell>
        <mxCell id="5J2Xf8zbZ3h8I-rfYEsj-18" style="line;strokeWidth=1;fillColor=none;align=left;verticalAlign=middle;spacingTop=-1;spacingLeft=3;spacingRight=3;rotatable=0;labelPosition=right;points=[];portConstraint=eastwest;strokeColor=inherit;" vertex="1" parent="5J2Xf8zbZ3h8I-rfYEsj-10">
          <mxGeometry y="200.1" width="278" height="8" as="geometry" />
        </mxCell>
        <mxCell id="5J2Xf8zbZ3h8I-rfYEsj-19" value="+updateDetails(details: Map) : : void" style="text;strokeColor=none;fillColor=none;align=left;verticalAlign=top;spacingLeft=4;spacingRight=4;overflow=hidden;rotatable=0;points=[[0,0.5],[1,0.5]];portConstraint=eastwest;" vertex="1" parent="5J2Xf8zbZ3h8I-rfYEsj-10">
          <mxGeometry y="208.1" width="278" height="25" as="geometry" />
        </mxCell>
        <mxCell id="5J2Xf8zbZ3h8I-rfYEsj-20" value="+getDetails() : : Map" style="text;strokeColor=none;fillColor=none;align=left;verticalAlign=top;spacingLeft=4;spacingRight=4;overflow=hidden;rotatable=0;points=[[0,0.5],[1,0.5]];portConstraint=eastwest;" vertex="1" parent="5J2Xf8zbZ3h8I-rfYEsj-10">
          <mxGeometry y="233.1" width="278" height="25" as="geometry" />
        </mxCell>
        <mxCell id="5J2Xf8zbZ3h8I-rfYEsj-21" value="AIScheduler" style="swimlane;fontStyle=1;align=center;verticalAlign=top;childLayout=stackLayout;horizontal=1;startSize=26.899998982747395;horizontalStack=0;resizeParent=1;resizeParentMax=0;resizeLast=0;collapsible=0;marginBottom=0;" vertex="1" parent="1">
          <mxGeometry x="709" y="42" width="416" height="169.89999898274738" as="geometry" />
        </mxCell>
        <mxCell id="5J2Xf8zbZ3h8I-rfYEsj-22" value="- preferences: SchedulingPreferences" style="text;strokeColor=none;fillColor=none;align=left;verticalAlign=top;spacingLeft=4;spacingRight=4;overflow=hidden;rotatable=0;points=[[0,0.5],[1,0.5]];portConstraint=eastwest;" vertex="1" parent="5J2Xf8zbZ3h8I-rfYEsj-21">
          <mxGeometry y="26.899998982747395" width="416" height="27" as="geometry" />
        </mxCell>
        <mxCell id="5J2Xf8zbZ3h8I-rfYEsj-23" value="- eventHistory: List" style="text;strokeColor=none;fillColor=none;align=left;verticalAlign=top;spacingLeft=4;spacingRight=4;overflow=hidden;rotatable=0;points=[[0,0.5],[1,0.5]];portConstraint=eastwest;" vertex="1" parent="5J2Xf8zbZ3h8I-rfYEsj-21">
          <mxGeometry y="53.89999898274739" width="416" height="27" as="geometry" />
        </mxCell>
        <mxCell id="5J2Xf8zbZ3h8I-rfYEsj-24" style="line;strokeWidth=1;fillColor=none;align=left;verticalAlign=middle;spacingTop=-1;spacingLeft=3;spacingRight=3;rotatable=0;labelPosition=right;points=[];portConstraint=eastwest;strokeColor=inherit;" vertex="1" parent="5J2Xf8zbZ3h8I-rfYEsj-21">
          <mxGeometry y="80.89999898274739" width="416" height="8" as="geometry" />
        </mxCell>
        <mxCell id="5J2Xf8zbZ3h8I-rfYEsj-25" value="+analyzePreferences() : : void" style="text;strokeColor=none;fillColor=none;align=left;verticalAlign=top;spacingLeft=4;spacingRight=4;overflow=hidden;rotatable=0;points=[[0,0.5],[1,0.5]];portConstraint=eastwest;" vertex="1" parent="5J2Xf8zbZ3h8I-rfYEsj-21">
          <mxGeometry y="88.89999898274739" width="416" height="27" as="geometry" />
        </mxCell>
        <mxCell id="5J2Xf8zbZ3h8I-rfYEsj-26" value="+suggestEventSchedule(event: Event) : : LocalDateTime" style="text;strokeColor=none;fillColor=none;align=left;verticalAlign=top;spacingLeft=4;spacingRight=4;overflow=hidden;rotatable=0;points=[[0,0.5],[1,0.5]];portConstraint=eastwest;" vertex="1" parent="5J2Xf8zbZ3h8I-rfYEsj-21">
          <mxGeometry y="115.89999898274739" width="416" height="27" as="geometry" />
        </mxCell>
        <mxCell id="5J2Xf8zbZ3h8I-rfYEsj-27" value="+optimizeSchedule(events: List) : : List" style="text;strokeColor=none;fillColor=none;align=left;verticalAlign=top;spacingLeft=4;spacingRight=4;overflow=hidden;rotatable=0;points=[[0,0.5],[1,0.5]];portConstraint=eastwest;" vertex="1" parent="5J2Xf8zbZ3h8I-rfYEsj-21">
          <mxGeometry y="142.89999898274738" width="416" height="27" as="geometry" />
        </mxCell>
        <mxCell id="5J2Xf8zbZ3h8I-rfYEsj-28" value="SchedulingPreferences" style="swimlane;fontStyle=1;align=center;verticalAlign=top;childLayout=stackLayout;horizontal=1;startSize=27.8;horizontalStack=0;resizeParent=1;resizeParentMax=0;resizeLast=0;collapsible=0;marginBottom=0;" vertex="1" parent="1">
          <mxGeometry x="540" y="359" width="351" height="147.8" as="geometry" />
        </mxCell>
        <mxCell id="5J2Xf8zbZ3h8I-rfYEsj-29" value="- timePreferences: Map" style="text;strokeColor=none;fillColor=none;align=left;verticalAlign=top;spacingLeft=4;spacingRight=4;overflow=hidden;rotatable=0;points=[[0,0.5],[1,0.5]];portConstraint=eastwest;" vertex="1" parent="5J2Xf8zbZ3h8I-rfYEsj-28">
          <mxGeometry y="27.8" width="351" height="28" as="geometry" />
        </mxCell>
        <mxCell id="5J2Xf8zbZ3h8I-rfYEsj-30" value="- eventTypes: Map" style="text;strokeColor=none;fillColor=none;align=left;verticalAlign=top;spacingLeft=4;spacingRight=4;overflow=hidden;rotatable=0;points=[[0,0.5],[1,0.5]];portConstraint=eastwest;" vertex="1" parent="5J2Xf8zbZ3h8I-rfYEsj-28">
          <mxGeometry y="55.8" width="351" height="28" as="geometry" />
        </mxCell>
        <mxCell id="5J2Xf8zbZ3h8I-rfYEsj-31" style="line;strokeWidth=1;fillColor=none;align=left;verticalAlign=middle;spacingTop=-1;spacingLeft=3;spacingRight=3;rotatable=0;labelPosition=right;points=[];portConstraint=eastwest;strokeColor=inherit;" vertex="1" parent="5J2Xf8zbZ3h8I-rfYEsj-28">
          <mxGeometry y="83.8" width="351" height="8" as="geometry" />
        </mxCell>
        <mxCell id="5J2Xf8zbZ3h8I-rfYEsj-32" value="+updatePreferences(preferences: Map) : : void" style="text;strokeColor=none;fillColor=none;align=left;verticalAlign=top;spacingLeft=4;spacingRight=4;overflow=hidden;rotatable=0;points=[[0,0.5],[1,0.5]];portConstraint=eastwest;" vertex="1" parent="5J2Xf8zbZ3h8I-rfYEsj-28">
          <mxGeometry y="91.8" width="351" height="28" as="geometry" />
        </mxCell>
        <mxCell id="5J2Xf8zbZ3h8I-rfYEsj-33" value="+getPreferences() : : Map" style="text;strokeColor=none;fillColor=none;align=left;verticalAlign=top;spacingLeft=4;spacingRight=4;overflow=hidden;rotatable=0;points=[[0,0.5],[1,0.5]];portConstraint=eastwest;" vertex="1" parent="5J2Xf8zbZ3h8I-rfYEsj-28">
          <mxGeometry y="119.8" width="351" height="28" as="geometry" />
        </mxCell>
        <mxCell id="5J2Xf8zbZ3h8I-rfYEsj-34" value="SyncService" style="swimlane;fontStyle=1;align=center;verticalAlign=top;childLayout=stackLayout;horizontal=1;startSize=26.899998982747395;horizontalStack=0;resizeParent=1;resizeParentMax=0;resizeLast=0;collapsible=0;marginBottom=0;" vertex="1" parent="1">
          <mxGeometry x="209" y="347" width="281" height="169.89999898274738" as="geometry" />
        </mxCell>
        <mxCell id="5J2Xf8zbZ3h8I-rfYEsj-35" value="- serviceName: String" style="text;strokeColor=none;fillColor=none;align=left;verticalAlign=top;spacingLeft=4;spacingRight=4;overflow=hidden;rotatable=0;points=[[0,0.5],[1,0.5]];portConstraint=eastwest;" vertex="1" parent="5J2Xf8zbZ3h8I-rfYEsj-34">
          <mxGeometry y="26.899998982747395" width="281" height="27" as="geometry" />
        </mxCell>
        <mxCell id="5J2Xf8zbZ3h8I-rfYEsj-36" value="- authToken: String" style="text;strokeColor=none;fillColor=none;align=left;verticalAlign=top;spacingLeft=4;spacingRight=4;overflow=hidden;rotatable=0;points=[[0,0.5],[1,0.5]];portConstraint=eastwest;" vertex="1" parent="5J2Xf8zbZ3h8I-rfYEsj-34">
          <mxGeometry y="53.89999898274739" width="281" height="27" as="geometry" />
        </mxCell>
        <mxCell id="5J2Xf8zbZ3h8I-rfYEsj-37" style="line;strokeWidth=1;fillColor=none;align=left;verticalAlign=middle;spacingTop=-1;spacingLeft=3;spacingRight=3;rotatable=0;labelPosition=right;points=[];portConstraint=eastwest;strokeColor=inherit;" vertex="1" parent="5J2Xf8zbZ3h8I-rfYEsj-34">
          <mxGeometry y="80.89999898274739" width="281" height="8" as="geometry" />
        </mxCell>
        <mxCell id="5J2Xf8zbZ3h8I-rfYEsj-38" value="+connect() : : boolean" style="text;strokeColor=none;fillColor=none;align=left;verticalAlign=top;spacingLeft=4;spacingRight=4;overflow=hidden;rotatable=0;points=[[0,0.5],[1,0.5]];portConstraint=eastwest;" vertex="1" parent="5J2Xf8zbZ3h8I-rfYEsj-34">
          <mxGeometry y="88.89999898274739" width="281" height="27" as="geometry" />
        </mxCell>
        <mxCell id="5J2Xf8zbZ3h8I-rfYEsj-39" value="+fetchEvents() : : List" style="text;strokeColor=none;fillColor=none;align=left;verticalAlign=top;spacingLeft=4;spacingRight=4;overflow=hidden;rotatable=0;points=[[0,0.5],[1,0.5]];portConstraint=eastwest;" vertex="1" parent="5J2Xf8zbZ3h8I-rfYEsj-34">
          <mxGeometry y="115.89999898274739" width="281" height="27" as="geometry" />
        </mxCell>
        <mxCell id="5J2Xf8zbZ3h8I-rfYEsj-40" value="+pushEvents(events: List) : : boolean" style="text;strokeColor=none;fillColor=none;align=left;verticalAlign=top;spacingLeft=4;spacingRight=4;overflow=hidden;rotatable=0;points=[[0,0.5],[1,0.5]];portConstraint=eastwest;" vertex="1" parent="5J2Xf8zbZ3h8I-rfYEsj-34">
          <mxGeometry y="142.89999898274738" width="281" height="27" as="geometry" />
        </mxCell>
        <mxCell id="5J2Xf8zbZ3h8I-rfYEsj-41" value="GoogleCalendarSyncService" style="swimlane;fontStyle=1;align=center;verticalAlign=top;childLayout=stackLayout;horizontal=1;startSize=24.700000762939453;horizontalStack=0;resizeParent=1;resizeParentMax=0;resizeLast=0;collapsible=0;marginBottom=0;" vertex="1" parent="1">
          <mxGeometry x="20" y="612" width="222" height="36.70000076293945" as="geometry" />
        </mxCell>
        <mxCell id="5J2Xf8zbZ3h8I-rfYEsj-42" style="line;strokeWidth=1;fillColor=none;align=left;verticalAlign=middle;spacingTop=-1;spacingLeft=3;spacingRight=3;rotatable=0;labelPosition=right;points=[];portConstraint=eastwest;strokeColor=inherit;" vertex="1" parent="5J2Xf8zbZ3h8I-rfYEsj-41">
          <mxGeometry y="24.700000762939453" width="222" height="12" as="geometry" />
        </mxCell>
        <mxCell id="5J2Xf8zbZ3h8I-rfYEsj-43" value="OutlookCalendarSyncService" style="swimlane;fontStyle=1;align=center;verticalAlign=top;childLayout=stackLayout;horizontal=1;startSize=24.700000762939453;horizontalStack=0;resizeParent=1;resizeParentMax=0;resizeLast=0;collapsible=0;marginBottom=0;" vertex="1" parent="1">
          <mxGeometry x="292" y="612" width="230" height="36.70000076293945" as="geometry" />
        </mxCell>
        <mxCell id="5J2Xf8zbZ3h8I-rfYEsj-44" style="line;strokeWidth=1;fillColor=none;align=left;verticalAlign=middle;spacingTop=-1;spacingLeft=3;spacingRight=3;rotatable=0;labelPosition=right;points=[];portConstraint=eastwest;strokeColor=inherit;" vertex="1" parent="5J2Xf8zbZ3h8I-rfYEsj-43">
          <mxGeometry y="24.700000762939453" width="230" height="12" as="geometry" />
        </mxCell>
        <mxCell id="5J2Xf8zbZ3h8I-rfYEsj-45" value="AppleCalendarSyncService" style="swimlane;fontStyle=1;align=center;verticalAlign=top;childLayout=stackLayout;horizontal=1;startSize=24.700000762939453;horizontalStack=0;resizeParent=1;resizeParentMax=0;resizeLast=0;collapsible=0;marginBottom=0;" vertex="1" parent="1">
          <mxGeometry x="572" y="612" width="215" height="36.70000076293945" as="geometry" />
        </mxCell>
        <mxCell id="5J2Xf8zbZ3h8I-rfYEsj-46" style="line;strokeWidth=1;fillColor=none;align=left;verticalAlign=middle;spacingTop=-1;spacingLeft=3;spacingRight=3;rotatable=0;labelPosition=right;points=[];portConstraint=eastwest;strokeColor=inherit;" vertex="1" parent="5J2Xf8zbZ3h8I-rfYEsj-45">
          <mxGeometry y="24.700000762939453" width="215" height="12" as="geometry" />
        </mxCell>
        <mxCell id="5J2Xf8zbZ3h8I-rfYEsj-47" value="NotificationService" style="swimlane;fontStyle=1;align=center;verticalAlign=top;childLayout=stackLayout;horizontal=1;startSize=31.399998982747395;horizontalStack=0;resizeParent=1;resizeParentMax=0;resizeLast=0;collapsible=0;marginBottom=0;" vertex="1" parent="1">
          <mxGeometry x="1401" y="76" width="300" height="101.39999898274739" as="geometry" />
        </mxCell>
        <mxCell id="5J2Xf8zbZ3h8I-rfYEsj-48" value="- subscribers: List" style="text;strokeColor=none;fillColor=none;align=left;verticalAlign=top;spacingLeft=4;spacingRight=4;overflow=hidden;rotatable=0;points=[[0,0.5],[1,0.5]];portConstraint=eastwest;" vertex="1" parent="5J2Xf8zbZ3h8I-rfYEsj-47">
          <mxGeometry y="31.399998982747395" width="300" height="31" as="geometry" />
        </mxCell>
        <mxCell id="5J2Xf8zbZ3h8I-rfYEsj-49" style="line;strokeWidth=1;fillColor=none;align=left;verticalAlign=middle;spacingTop=-1;spacingLeft=3;spacingRight=3;rotatable=0;labelPosition=right;points=[];portConstraint=eastwest;strokeColor=inherit;" vertex="1" parent="5J2Xf8zbZ3h8I-rfYEsj-47">
          <mxGeometry y="62.39999898274739" width="300" height="8" as="geometry" />
        </mxCell>
        <mxCell id="5J2Xf8zbZ3h8I-rfYEsj-50" value="+sendNotification(event: Event) : : void" style="text;strokeColor=none;fillColor=none;align=left;verticalAlign=top;spacingLeft=4;spacingRight=4;overflow=hidden;rotatable=0;points=[[0,0.5],[1,0.5]];portConstraint=eastwest;" vertex="1" parent="5J2Xf8zbZ3h8I-rfYEsj-47">
          <mxGeometry y="70.39999898274739" width="300" height="31" as="geometry" />
        </mxCell>
        <mxCell id="5J2Xf8zbZ3h8I-rfYEsj-51" value="User" style="swimlane;fontStyle=1;align=center;verticalAlign=top;childLayout=stackLayout;horizontal=1;startSize=27.8;horizontalStack=0;resizeParent=1;resizeParentMax=0;resizeLast=0;collapsible=0;marginBottom=0;" vertex="1" parent="1">
          <mxGeometry x="1310" y="359" width="483" height="147.8" as="geometry" />
        </mxCell>
        <mxCell id="5J2Xf8zbZ3h8I-rfYEsj-52" value="- userId: String" style="text;strokeColor=none;fillColor=none;align=left;verticalAlign=top;spacingLeft=4;spacingRight=4;overflow=hidden;rotatable=0;points=[[0,0.5],[1,0.5]];portConstraint=eastwest;" vertex="1" parent="5J2Xf8zbZ3h8I-rfYEsj-51">
          <mxGeometry y="27.8" width="483" height="28" as="geometry" />
        </mxCell>
        <mxCell id="5J2Xf8zbZ3h8I-rfYEsj-53" value="- name: String" style="text;strokeColor=none;fillColor=none;align=left;verticalAlign=top;spacingLeft=4;spacingRight=4;overflow=hidden;rotatable=0;points=[[0,0.5],[1,0.5]];portConstraint=eastwest;" vertex="1" parent="5J2Xf8zbZ3h8I-rfYEsj-51">
          <mxGeometry y="55.8" width="483" height="28" as="geometry" />
        </mxCell>
        <mxCell id="5J2Xf8zbZ3h8I-rfYEsj-54" value="- email: String" style="text;strokeColor=none;fillColor=none;align=left;verticalAlign=top;spacingLeft=4;spacingRight=4;overflow=hidden;rotatable=0;points=[[0,0.5],[1,0.5]];portConstraint=eastwest;" vertex="1" parent="5J2Xf8zbZ3h8I-rfYEsj-51">
          <mxGeometry y="83.8" width="483" height="28" as="geometry" />
        </mxCell>
        <mxCell id="5J2Xf8zbZ3h8I-rfYEsj-55" style="line;strokeWidth=1;fillColor=none;align=left;verticalAlign=middle;spacingTop=-1;spacingLeft=3;spacingRight=3;rotatable=0;labelPosition=right;points=[];portConstraint=eastwest;strokeColor=inherit;" vertex="1" parent="5J2Xf8zbZ3h8I-rfYEsj-51">
          <mxGeometry y="111.8" width="483" height="8" as="geometry" />
        </mxCell>
        <mxCell id="5J2Xf8zbZ3h8I-rfYEsj-56" value="+updatePreferences(preferences: SchedulingPreferences) : : void" style="text;strokeColor=none;fillColor=none;align=left;verticalAlign=top;spacingLeft=4;spacingRight=4;overflow=hidden;rotatable=0;points=[[0,0.5],[1,0.5]];portConstraint=eastwest;" vertex="1" parent="5J2Xf8zbZ3h8I-rfYEsj-51">
          <mxGeometry y="119.8" width="483" height="28" as="geometry" />
        </mxCell>
        <mxCell id="5J2Xf8zbZ3h8I-rfYEsj-57" value="&quot;aggregates&quot;" style="curved=1;startArrow=none;endArrow=open;endSize=12;exitX=0.38;exitY=1;entryX=0;entryY=0.4;rounded=0;" edge="1" parent="1" source="5J2Xf8zbZ3h8I-rfYEsj-1" target="5J2Xf8zbZ3h8I-rfYEsj-10">
          <mxGeometry relative="1" as="geometry">
            <Array as="points">
              <mxPoint x="265" y="268" />
            </Array>
          </mxGeometry>
        </mxCell>
        <mxCell id="5J2Xf8zbZ3h8I-rfYEsj-58" value="&quot;uses&quot;" style="curved=1;startArrow=none;endArrow=open;endSize=12;exitX=0.6;exitY=1;entryX=0.5;entryY=0;rounded=0;" edge="1" parent="1" source="5J2Xf8zbZ3h8I-rfYEsj-1" target="5J2Xf8zbZ3h8I-rfYEsj-34">
          <mxGeometry relative="1" as="geometry">
            <Array as="points">
              <mxPoint x="350" y="268" />
            </Array>
          </mxGeometry>
        </mxCell>
        <mxCell id="5J2Xf8zbZ3h8I-rfYEsj-59" value="&quot;composed with&quot;" style="curved=1;startArrow=none;endArrow=open;endSize=12;exitX=0.21;exitY=1;entryX=0.5;entryY=0;rounded=0;" edge="1" parent="1" source="5J2Xf8zbZ3h8I-rfYEsj-21" target="5J2Xf8zbZ3h8I-rfYEsj-28">
          <mxGeometry relative="1" as="geometry">
            <Array as="points">
              <mxPoint x="715" y="268" />
            </Array>
          </mxGeometry>
        </mxCell>
        <mxCell id="5J2Xf8zbZ3h8I-rfYEsj-60" value="&quot;analyzes&quot;" style="curved=1;startArrow=none;endArrow=open;endSize=12;exitX=0.73;exitY=1;entryX=0.38;entryY=0;rounded=0;" edge="1" parent="1" source="5J2Xf8zbZ3h8I-rfYEsj-21" target="5J2Xf8zbZ3h8I-rfYEsj-10">
          <mxGeometry relative="1" as="geometry">
            <Array as="points">
              <mxPoint x="1080" y="268" />
            </Array>
          </mxGeometry>
        </mxCell>
        <mxCell id="5J2Xf8zbZ3h8I-rfYEsj-61" value="" style="curved=1;startArrow=block;startSize=16;startFill=0;endArrow=none;exitX=0.07;exitY=1;entryX=0.5;entryY=-0.01;rounded=0;" edge="1" parent="1" source="5J2Xf8zbZ3h8I-rfYEsj-34" target="5J2Xf8zbZ3h8I-rfYEsj-41">
          <mxGeometry relative="1" as="geometry">
            <Array as="points">
              <mxPoint x="131" y="587" />
            </Array>
          </mxGeometry>
        </mxCell>
        <mxCell id="5J2Xf8zbZ3h8I-rfYEsj-62" value="" style="curved=1;startArrow=block;startSize=16;startFill=0;endArrow=none;exitX=0.61;exitY=1;entryX=0.5;entryY=-0.01;rounded=0;" edge="1" parent="1" source="5J2Xf8zbZ3h8I-rfYEsj-34" target="5J2Xf8zbZ3h8I-rfYEsj-43">
          <mxGeometry relative="1" as="geometry">
            <Array as="points">
              <mxPoint x="407" y="587" />
            </Array>
          </mxGeometry>
        </mxCell>
        <mxCell id="5J2Xf8zbZ3h8I-rfYEsj-63" value="" style="curved=1;startArrow=block;startSize=16;startFill=0;endArrow=none;exitX=1;exitY=0.89;entryX=0.5;entryY=-0.01;rounded=0;" edge="1" parent="1" source="5J2Xf8zbZ3h8I-rfYEsj-34" target="5J2Xf8zbZ3h8I-rfYEsj-45">
          <mxGeometry relative="1" as="geometry">
            <Array as="points">
              <mxPoint x="680" y="587" />
            </Array>
          </mxGeometry>
        </mxCell>
        <mxCell id="5J2Xf8zbZ3h8I-rfYEsj-64" value="&quot;notifies&quot;" style="curved=1;startArrow=none;endArrow=open;endSize=12;exitX=0.45;exitY=1;entryX=0.46;entryY=0;rounded=0;" edge="1" parent="1" source="5J2Xf8zbZ3h8I-rfYEsj-47" target="5J2Xf8zbZ3h8I-rfYEsj-51">
          <mxGeometry relative="1" as="geometry">
            <Array as="points">
              <mxPoint x="1510" y="268" />
            </Array>
          </mxGeometry>
        </mxCell>
        <mxCell id="5J2Xf8zbZ3h8I-rfYEsj-65" value="&quot;relates&quot;" style="curved=1;startArrow=none;endArrow=open;endSize=12;exitX=0.55;exitY=1;entryX=1;entryY=0.31;rounded=0;" edge="1" parent="1" source="5J2Xf8zbZ3h8I-rfYEsj-47" target="5J2Xf8zbZ3h8I-rfYEsj-10">
          <mxGeometry relative="1" as="geometry">
            <Array as="points">
              <mxPoint x="1593" y="268" />
            </Array>
          </mxGeometry>
        </mxCell>
      </root>
    </mxGraphModel>
  </diagram>
</mxfile>
